<svg width="23" height="20" viewBox="0 0 23 20" fill="none" xmlns="http://www.w3.org/2000/svg">
<g clip-path="url(#clip0_43_442)">
<path d="M15.3775 0H7.37544C3.69315 0 0.707031 2.79875 0.707031 6.25V13.75C0.707031 17.2013 3.69315 20 7.37544 20H15.3775C19.0598 20 22.0459 17.2013 22.0459 13.75V6.25C22.0459 2.79875 19.0598 0 15.3775 0ZM20.0454 13.75C20.0454 16.1625 17.9515 18.125 15.3775 18.125H7.37544C4.80144 18.125 2.70755 16.1625 2.70755 13.75V6.25C2.70755 3.8375 4.80144 1.875 7.37544 1.875H15.3775C17.9515 1.875 20.0454 3.8375 20.0454 6.25V13.75Z" fill="white"/>
<path d="M11.3765 5C8.43037 5 6.04175 7.23875 6.04175 10C6.04175 12.7613 8.43037 15 11.3765 15C14.3226 15 16.7112 12.7613 16.7112 10C16.7112 7.23875 14.3226 5 11.3765 5ZM11.3765 13.125C9.53866 13.125 8.04227 11.7225 8.04227 10C8.04227 8.27625 9.53866 6.875 11.3765 6.875C13.2143 6.875 14.7107 8.27625 14.7107 10C14.7107 11.7225 13.2143 13.125 11.3765 13.125Z" fill="white"/>
<path d="M17.1112 5.29123C17.5038 5.29123 17.8221 4.99294 17.8221 4.62499C17.8221 4.25703 17.5038 3.95874 17.1112 3.95874C16.7187 3.95874 16.4004 4.25703 16.4004 4.62499C16.4004 4.99294 16.7187 5.29123 17.1112 5.29123Z" fill="white"/>
</g>
<defs>
<clipPath id="clip0_43_442">
<rect width="21.3389" height="20" fill="white" transform="translate(0.707031)"/>
</clipPath>
</defs>
</svg>
