<svg width="80" height="80" viewBox="0 0 80 80" fill="none" xmlns="http://www.w3.org/2000/svg">
<g clip-path="url(#clip0_43_291)">
<path d="M57.3333 74.6667H20C19.2641 74.6667 18.6667 75.2641 18.6667 76V78.6667C18.6667 79.4027 19.2641 80 20 80C20.736 80 21.3333 79.4027 21.3333 78.6667V77.3334H57.3333C58.0692 77.3334 58.6666 76.7361 58.6666 76.0002C58.6666 75.2642 58.0694 74.6667 57.3333 74.6667Z" fill="#D4C17F"/>
<path d="M29.3333 33.3333C29.3333 34.0692 29.9306 34.6666 30.6665 34.6666H36C36.7359 34.6666 37.3333 34.0692 37.3333 33.3333V25.3333C37.3333 24.5973 36.7359 24 36 24H30.6667C29.9308 24 29.3334 24.5973 29.3334 25.3333V33.3333H29.3333ZM32 26.6667H34.6667V32H32V26.6667Z" fill="#D4C17F"/>
<path d="M17.3333 16H1.33328C0.597344 16 0 16.5973 0 17.3333V44C0 44.7359 0.597344 45.3333 1.33328 45.3333C2.06922 45.3333 2.66656 44.7359 2.66656 44V18.6667H17.3333C18.0692 18.6667 18.6666 18.0694 18.6666 17.3334C18.6666 16.5975 18.0694 16 17.3333 16Z" fill="#D4C17F"/>
<path d="M64 65.3333C64 66.0692 64.5973 66.6666 65.3333 66.6666H70.6666C71.4025 66.6666 71.9998 66.0692 71.9998 65.3333V57.3333C71.9998 56.5973 71.4025 56 70.6666 56H65.3333C64.5973 56 64 56.5973 64 57.3333V65.3333ZM66.6667 58.6667H69.3334V64H66.6667V58.6667Z" fill="#D4C17F"/>
<path d="M6.66672 48C0.0759375 48 0 65.16 0 65.3333C0 68.5533 2.29469 71.2453 5.33328 71.8653V78.6667C5.33328 79.4027 5.93062 80 6.66656 80C7.4025 80 7.99984 79.4027 7.99984 78.6667V71.8653C11.0384 71.2453 13.3331 68.5533 13.3331 65.3333C13.3333 65.16 13.2573 48 6.66672 48ZM6.66672 69.3333C4.46141 69.3333 2.66672 67.5386 2.66672 65.3333C2.66672 58.6906 4.45078 50.6666 6.66672 50.6666C8.88266 50.6666 10.6667 58.6906 10.6667 65.3333C10.6667 67.5386 8.87203 69.3333 6.66672 69.3333Z" fill="#D4C17F"/>
<path d="M14.6667 40H9.33328C8.59734 40 8 40.5973 8 41.3333V44C8 44.7359 8.59734 45.3333 9.33328 45.3333C10.0692 45.3333 10.6666 44.7359 10.6666 44V42.6667H13.3333V49.3334C13.3333 50.0694 13.9306 50.6667 14.6666 50.6667C15.4025 50.6667 15.9998 50.0694 15.9998 49.3334V41.3334C16 40.5973 15.4027 40 14.6667 40Z" fill="#D4C17F"/>
<path d="M65.3333 34.6667H70.6666C71.4025 34.6667 71.9998 34.0694 71.9998 33.3334V25.3334C71.9998 24.5975 71.4025 24.0002 70.6666 24.0002H65.3333C64.5973 24.0002 64 24.5975 64 25.3334V33.3334C64 34.0694 64.5973 34.6667 65.3333 34.6667ZM66.6667 26.6667H69.3334V32H66.6667V26.6667Z" fill="#D4C17F"/>
<path d="M14.6667 24H9.33328C8.59734 24 8 24.5973 8 25.3333V33.3333C8 34.0692 8.59734 34.6666 9.33328 34.6666H14.6666C15.4025 34.6666 15.9998 34.0692 15.9998 33.3333V25.3333C16 24.5973 15.4027 24 14.6667 24ZM13.3333 32H10.6667V26.6667H13.3334V32H13.3333Z" fill="#D4C17F"/>
<path d="M42.6667 33.3333C42.6667 34.0692 43.2641 34.6666 44 34.6666H49.3333C50.0692 34.6666 50.6666 34.0692 50.6666 33.3333V25.3333C50.6666 24.5973 50.0692 24 49.3333 24H44C43.2641 24 42.6667 24.5973 42.6667 25.3333V33.3333ZM45.3333 26.6667H48V32H45.3333V26.6667Z" fill="#D4C17F"/>
<path d="M78.6668 16H62.6668C61.9308 16 61.3335 16.5973 61.3335 17.3333C61.3335 18.0692 61.9308 18.6666 62.6668 18.6666H77.3335V72.2453C76.9149 72.0959 76.4708 72 76.0002 72C75.7696 72 75.5402 72.02 75.3149 72.06C74.3949 70.4026 72.6443 69.3333 70.6669 69.3333C68.6896 69.3333 66.939 70.4026 66.019 72.06C65.7937 72.02 65.5643 72 65.3337 72C63.1283 72 61.3337 73.7947 61.3337 76C61.3337 78.2053 63.1283 80 65.3337 80H76.0001C78.2054 80 80.0001 78.2053 80.0001 76V17.3333C80.0001 16.5973 79.4027 16 78.6668 16ZM76.0001 77.3333H65.3333C64.5987 77.3333 64.0001 76.7347 64.0001 76C64.0001 75.2653 64.5987 74.6667 65.3333 74.6667C65.5893 74.6667 65.8319 74.74 66.056 74.8841C66.4213 75.1187 66.8774 75.1614 67.2801 74.9987C67.6827 74.8361 67.9801 74.4867 68.0774 74.0641C68.3588 72.8494 69.4241 72 70.6668 72C71.9094 72 72.9747 72.8494 73.2562 74.0641C73.3535 74.4867 73.6508 74.8361 74.0535 74.9987C74.4549 75.1614 74.9121 75.1187 75.2776 74.8841C76.1455 74.3241 77.3335 75.0094 77.3335 76C77.3333 76.7347 76.7347 77.3333 76.0001 77.3333Z" fill="#D4C17F"/>
<path d="M44 18.6667H49.3333C50.0692 18.6667 50.6666 18.0694 50.6666 17.3334V9.33343C50.6666 8.5975 50.0692 8.00015 49.3333 8.00015H44C43.2641 8.00015 42.6667 8.5975 42.6667 9.33343V17.3334C42.6667 18.0694 43.2641 18.6667 44 18.6667ZM45.3333 10.6667H48V16H45.3333V10.6667Z" fill="#D4C17F"/>
<path d="M42.6667 49.3333C42.6667 50.0692 43.2641 50.6666 44 50.6666H49.3333C50.0692 50.6666 50.6666 50.0692 50.6666 49.3333V41.3333C50.6666 40.5973 50.0692 40 49.3333 40H44C43.2641 40 42.6667 40.5973 42.6667 41.3333V49.3333ZM45.3333 42.6667H48V48H45.3333V42.6667Z" fill="#D4C17F"/>
<path d="M30.6668 18.6667H36.0001C36.736 18.6667 37.3333 18.0694 37.3333 17.3334V9.33343C37.3333 8.5975 36.736 8.00015 36.0001 8.00015H30.6668C29.9308 8.00015 29.3335 8.5975 29.3335 9.33343V17.3334C29.3333 18.0694 29.9307 18.6667 30.6668 18.6667ZM32.0001 10.6667H34.6668V16H32.0001V10.6667Z" fill="#D4C17F"/>
<path d="M39.0532 64.3867C38.8132 64.64 38.6665 64.9867 38.6665 65.3334C38.6665 65.6801 38.8132 66.0267 39.0532 66.2801C39.3065 66.5202 39.6532 66.6669 39.9999 66.6669C40.3467 66.6669 40.6932 66.5202 40.9467 66.2801C41.1867 66.0269 41.3334 65.6801 41.3334 65.3334C41.3334 64.9867 41.1867 64.6401 40.9467 64.3867C40.4399 63.8933 39.5599 63.8933 39.0532 64.3867Z" fill="#D4C17F"/>
<path d="M29.3333 49.3333C29.3333 50.0692 29.9306 50.6666 30.6665 50.6666H36C36.7359 50.6666 37.3333 50.0692 37.3333 49.3333V41.3333C37.3333 40.5973 36.7359 40 36 40H30.6667C29.9308 40 29.3334 40.5973 29.3334 41.3333V49.3333H29.3333ZM32 42.6667H34.6667V48H32V42.6667Z" fill="#D4C17F"/>
<path d="M26.6667 57.3333C26.6667 58.0692 27.2641 58.6666 28 58.6666H32V70.6666C32 71.4025 32.5974 71.9998 33.3333 71.9998C34.0692 71.9998 34.6666 71.4025 34.6666 70.6666V58.6666H45.3333V70.6666C45.3333 71.4025 45.9307 71.9998 46.6666 71.9998C47.4025 71.9998 47.9999 71.4025 47.9999 70.6666V58.6666H51.9999C52.7358 58.6666 53.3332 58.0692 53.3332 57.3333C53.3332 56.5973 52.7358 56 51.9999 56H28C27.2641 56 26.6667 56.5973 26.6667 57.3333Z" fill="#D4C17F"/>
<path d="M64 49.3333C64 50.0692 64.5973 50.6666 65.3333 50.6666H70.6666C71.4025 50.6666 71.9998 50.0692 71.9998 49.3333V41.3333C71.9998 40.5973 71.4025 40 70.6666 40H65.3333C64.5973 40 64 40.5973 64 41.3333V49.3333ZM66.6667 42.6667H69.3334V48H66.6667V42.6667Z" fill="#D4C17F"/>
<path d="M57.3333 0H22.6668C21.9308 0 21.3335 0.597344 21.3335 1.33328V70.6666C21.3335 71.4025 21.9308 71.9998 22.6668 71.9998C23.4027 71.9998 24.0001 71.4025 24.0001 70.6666V2.66656H56.0001V70.6666C56.0001 71.4025 56.5974 71.9998 57.3333 71.9998C58.0693 71.9998 58.6666 71.4025 58.6666 70.6666V1.33328C58.6668 0.597344 58.0694 0 57.3333 0Z" fill="#D4C17F"/>
</g>
<defs>
<clipPath id="clip0_43_291">
<rect width="80" height="80" fill="white"/>
</clipPath>
</defs>
</svg>
