<svg width="80" height="80" viewBox="0 0 80 80" fill="none" xmlns="http://www.w3.org/2000/svg">
<g clip-path="url(#clip0_43_317)">
<path d="M53.3893 4.62187C53.5719 4.62187 53.756 4.58452 53.9333 4.50452C54.3146 4.3339 54.7013 4.17249 55.0933 4.02453C55.7827 3.76187 56.1293 2.9925 55.8666 2.30453C55.6052 1.61516 54.8346 1.27391 54.1479 1.52984C53.7065 1.69781 53.2705 1.87922 52.8425 2.07125C52.1705 2.37265 51.8693 3.16187 52.1719 3.8339C52.3933 4.32843 52.8786 4.62187 53.3893 4.62187Z" fill="#D4C17F"/>
<path d="M53.3334 33.5377C54.0708 33.5377 54.6667 32.9418 54.6667 32.2044V31.9738C54.6667 31.6232 54.6894 31.2791 54.7334 30.9405C54.8294 30.2099 54.3147 29.5405 53.5867 29.4446C52.8347 29.3487 52.1867 29.8632 52.0894 30.5926C52.0308 31.0432 52 31.5085 52 31.974V32.2046C52.0002 32.9418 52.5961 33.5377 53.3334 33.5377Z" fill="#D4C17F"/>
<path d="M46.6668 33.8671C47.4041 33.8671 48.0001 33.2698 48.0001 32.5338V31.1792C48.0001 30.4432 47.4041 29.8459 46.6668 29.8459C45.9294 29.8459 45.3335 30.4432 45.3335 31.1792V32.5338C45.3335 33.2698 45.9294 33.8671 46.6668 33.8671Z" fill="#D4C17F"/>
<path d="M54.3227 12.7778C53.8933 13.0137 53.4733 13.2684 53.0694 13.5392C52.4574 13.9486 52.2921 14.7778 52.7014 15.3898C52.9588 15.7739 53.3814 15.9804 53.8108 15.9804C54.0667 15.9804 54.3241 15.9084 54.5508 15.7551C54.8934 15.5272 55.2467 15.3125 55.6094 15.1125C56.2534 14.7578 56.4894 13.9458 56.1347 13.3019C55.7786 12.6565 54.9692 12.4245 54.3227 12.7778Z" fill="#D4C17F"/>
<path d="M35.4109 12.6419C35.6629 13.0445 36.0962 13.2659 36.5402 13.2659C36.7829 13.2659 37.0282 13.2006 37.247 13.0619C37.871 12.6698 38.0602 11.8472 37.6684 11.2245C37.4163 10.8231 37.1551 10.4312 36.8804 10.0472C36.4524 9.44859 35.6218 9.30859 35.0204 9.73922C34.4204 10.1686 34.2831 11.0006 34.711 11.5992C34.9548 11.9392 35.1882 12.2872 35.4109 12.6419Z" fill="#D4C17F"/>
<path d="M59.7882 2.82188C59.8429 2.82188 59.9002 2.81782 59.9562 2.81126C60.3682 2.75923 60.7855 2.71923 61.2068 2.68985C61.9427 2.64048 62.4974 2.00579 62.4494 1.27126C62.4015 0.536574 61.7561 -0.0193621 61.0308 0.0298566C60.5561 0.0604815 60.0868 0.1072 59.6229 0.165794C58.8922 0.257825 58.3735 0.924386 58.4669 1.65517C58.5508 2.32845 59.1255 2.82188 59.7882 2.82188Z" fill="#D4C17F"/>
<path d="M54.844 24.7218C54.344 25.2618 54.3747 26.1059 54.9134 26.6059C55.1722 26.8445 55.4961 26.9618 55.8214 26.9618C56.18 26.9618 56.5361 26.8191 56.8 26.5351C57.0773 26.2365 57.3826 25.9537 57.7079 25.6951C58.2853 25.2365 58.3812 24.3978 57.9226 23.8218C57.4653 23.2459 56.6253 23.1471 56.0493 23.6071C55.6187 23.9484 55.2134 24.3245 54.844 24.7218Z" fill="#D4C17F"/>
<path d="M42.7519 13.0619C42.9719 13.2005 43.2173 13.2659 43.4599 13.2659C43.904 13.2659 44.3373 13.0445 44.5893 12.6419C44.8119 12.2872 45.0452 11.9392 45.2893 11.5992C45.7173 11.0006 45.5799 10.1686 44.9799 9.73922C44.3785 9.30859 43.5479 9.44859 43.1199 10.0472C42.8452 10.4312 42.5826 10.8231 42.3319 11.2245C41.9401 11.8472 42.1293 12.6698 42.7519 13.0619Z" fill="#D4C17F"/>
<path d="M53.3335 39.9738C54.0709 39.9738 54.6668 39.3765 54.6668 38.6406V37.9738C54.6668 37.2379 54.0709 36.6406 53.3335 36.6406C52.5962 36.6406 52.0002 37.2379 52.0002 37.9738V38.6406C52.0002 39.3765 52.5962 39.9738 53.3335 39.9738Z" fill="#D4C17F"/>
<path d="M46.6387 27.091C46.7001 27.1004 46.7601 27.1043 46.8201 27.1043C47.476 27.1043 48.0494 26.619 48.1413 25.9496C48.196 25.539 48.2693 25.1337 48.3599 24.7337C48.524 24.0151 48.0732 23.3017 47.3546 23.139C46.636 22.9764 45.9213 23.4257 45.7587 24.1443C45.6519 24.6203 45.564 25.1029 45.4973 25.591C45.3987 26.3204 45.9107 26.9924 46.6387 27.091Z" fill="#D4C17F"/>
<path d="M37.5613 17.1792C37.6946 17.5739 37.8146 17.9724 37.9254 18.3778C38.0868 18.971 38.6254 19.3618 39.2107 19.3618C39.3266 19.3618 39.444 19.3459 39.5613 19.3139C39.7266 19.2698 39.8707 19.1898 39.9999 19.0953C40.1293 19.1899 40.2732 19.2699 40.4385 19.3139C40.5559 19.3459 40.6732 19.3618 40.7891 19.3618C41.3745 19.3618 41.9132 18.9712 42.0745 18.3778C42.1851 17.9724 42.3038 17.5737 42.4385 17.1792C42.6771 16.4818 42.3026 15.7245 41.6065 15.4871C40.9665 15.2686 40.2918 15.5818 39.9998 16.1739C39.7077 15.5818 39.0331 15.2686 38.3931 15.4871C37.696 15.7245 37.3227 16.4818 37.5613 17.1792Z" fill="#D4C17F"/>
<path d="M47.7854 8.20842C48.096 8.20842 48.408 8.10045 48.6601 7.8817C48.976 7.60701 49.3001 7.34029 49.6307 7.08576C50.2147 6.63639 50.3227 5.80045 49.8747 5.21639C49.4254 4.63233 48.588 4.5217 48.0054 4.97233C47.6307 5.2603 47.2654 5.55905 46.9107 5.86967C46.3548 6.35233 46.296 7.19498 46.7801 7.75107C47.0427 8.05389 47.4133 8.20842 47.7854 8.20842Z" fill="#D4C17F"/>
<path d="M48.8214 17.5418C48.5281 17.9312 48.2508 18.3339 47.9908 18.7471C47.5975 19.3698 47.7855 20.1939 48.4082 20.5871C48.6296 20.7245 48.8735 20.7912 49.1175 20.7912C49.5602 20.7912 49.9935 20.5712 50.2469 20.1685C50.4683 19.8179 50.7028 19.4765 50.9522 19.1471C51.3949 18.5592 51.2775 17.7231 50.6896 17.2792C50.1002 16.8351 49.2641 16.9565 48.8214 17.5418Z" fill="#D4C17F"/>
<path d="M61.3027 10.6939C60.8094 10.7312 60.3241 10.7898 59.8454 10.8686C59.1187 10.9886 58.6268 11.6753 58.7468 12.4018C58.8535 13.0551 59.4174 13.5178 60.0601 13.5178C60.1321 13.5178 60.2041 13.5125 60.2774 13.5004C60.6841 13.4337 61.0933 13.3845 61.508 13.3525C62.2427 13.2951 62.7921 12.6539 62.7347 11.9192C62.6772 11.1858 62.0519 10.6312 61.3027 10.6939Z" fill="#D4C17F"/>
<path d="M66.236 2.92048C66.6507 2.9872 67.064 3.06579 67.4719 3.15517C67.5693 3.17657 67.664 3.18579 67.7587 3.18579C68.3719 3.18579 68.9227 2.76173 69.0601 2.13908C69.2174 1.41908 68.7627 0.708453 68.0427 0.551109C67.5841 0.44986 67.1227 0.363141 66.6547 0.288454C65.928 0.168454 65.2454 0.668453 65.1294 1.39517C65.0133 2.12189 65.508 2.80579 66.236 2.92048Z" fill="#D4C17F"/>
<path d="M68.5173 11.6525C68.0573 11.4884 67.5893 11.3419 67.1159 11.2165C66.4079 11.0325 65.6759 11.4525 65.4852 12.1645C65.2973 12.8765 65.7212 13.6058 66.4332 13.7951C66.8346 13.9004 67.2291 14.0231 67.6159 14.1631C67.7652 14.2164 67.9159 14.2417 68.0665 14.2417C68.6132 14.2417 69.1265 13.9017 69.3212 13.3576C69.5707 12.6645 69.2093 11.9005 68.5173 11.6525Z" fill="#D4C17F"/>
<path d="M62.124 21.3204C61.388 21.3578 60.8213 21.9831 60.8587 22.7178C60.8946 23.4537 61.472 24.0137 62.256 23.9831C62.6654 23.9631 63.088 23.9751 63.4933 24.0164C63.5401 24.0217 63.5866 24.0231 63.6321 24.0231C64.308 24.0231 64.8854 23.5125 64.9574 22.8271C65.0321 22.0939 64.4988 21.4392 63.7668 21.3631C63.2266 21.3084 62.668 21.2912 62.124 21.3204Z" fill="#D4C17F"/>
<path d="M77.6813 8.87248C77.944 9.16045 78.3054 9.30717 78.6666 9.30717C78.988 9.30717 79.3093 9.19248 79.5652 8.9592C80.1093 8.46326 80.1479 7.6192 79.6519 7.07514C79.4919 6.90045 79.3293 6.72842 79.1652 6.56045C78.6479 6.03374 77.8052 6.02717 77.2799 6.5417C76.7519 7.05639 76.7452 7.90029 77.2585 8.42701C77.4027 8.57248 77.544 8.72186 77.6813 8.87248Z" fill="#D4C17F"/>
<path d="M57.3334 50.6404H41.3335C40.5961 50.6404 40.0002 51.2377 40.0002 51.9736C40.0002 52.7096 40.5961 53.3069 41.3335 53.3069H57.3334C61.072 53.3069 64.0001 50.379 64.0001 46.6402V43.9735C64.0001 43.2376 63.4042 42.6402 62.6669 42.6402H17.3335C16.5962 42.6402 16.0002 43.2376 16.0002 43.9735V46.6402C16.0002 50.3788 18.9282 53.3069 22.6669 53.3069H34.6669V59.9736C34.6669 60.7096 35.2629 61.3069 36.0002 61.3069C36.7375 61.3069 37.3335 60.7096 37.3335 59.9736V51.9736C37.3335 51.2377 36.7375 50.6404 36.0002 50.6404H22.6669C20.4229 50.6404 18.667 48.883 18.667 46.6404V45.3071H61.3336V46.6404C61.3334 48.883 59.5773 50.6404 57.3334 50.6404Z" fill="#D4C17F"/>
<path d="M70.6467 31.4018C70.66 31.5898 70.6667 31.7818 70.6667 31.9738C70.6667 32.7098 71.2626 33.3071 72 33.3071C72.7373 33.3071 73.3333 32.7098 73.3333 31.9738C73.3333 31.7179 73.3239 31.4645 73.3053 31.2124C73.2533 30.4791 72.6294 29.9245 71.8812 29.9765C71.1467 30.0298 70.5947 30.6671 70.6467 31.4018Z" fill="#D4C17F"/>
<path d="M67.8306 24.0831C67.3439 24.6363 67.3974 25.4777 67.9492 25.9657C68.2586 26.2377 68.5478 26.5351 68.8092 26.8498C69.0746 27.1671 69.4533 27.3298 69.836 27.3298C70.136 27.3298 70.4386 27.2285 70.688 27.0218C71.2533 26.5498 71.3307 25.7098 70.8586 25.1432C70.5107 24.7245 70.1239 24.3273 69.7119 23.9645C69.1613 23.4792 68.3186 23.5298 67.8306 24.0831Z" fill="#D4C17F"/>
<path d="M41.3335 30.5657C41.3335 29.8298 40.7376 29.2325 40.0003 29.2325C39.2629 29.2325 38.667 29.8298 38.667 30.5657V32.0484C38.667 32.7843 39.2629 33.3817 40.0003 33.3817C40.7376 33.3817 41.3335 32.7843 41.3335 32.0484V30.5657Z" fill="#D4C17F"/>
<path d="M40.0003 36.6404C39.2629 36.6404 38.667 37.2378 38.667 37.9737V38.6404C38.667 39.3763 39.2629 39.9737 40.0003 39.9737C40.7376 39.9737 41.3335 39.3763 41.3335 38.6404V37.9737C41.3335 37.2378 40.7375 36.6404 40.0003 36.6404Z" fill="#D4C17F"/>
<path d="M45.3335 38.6404C45.3335 39.3763 45.9294 39.9737 46.6668 39.9737C47.4041 39.9737 48.0001 39.3763 48.0001 38.6404V37.9737C48.0001 37.2378 47.4041 36.6404 46.6668 36.6404C45.9294 36.6404 45.3335 37.2378 45.3335 37.9737V38.6404Z" fill="#D4C17F"/>
<path d="M41.3334 23.9739C41.3334 23.7632 41.3361 23.5553 41.3428 23.3459C41.3587 22.7765 41.0108 22.2873 40.5122 22.0833C40.4616 22.0606 40.4042 22.0606 40.3508 22.0447C40.2508 22.0179 40.1561 21.9779 40.0481 21.9753C40.0348 21.9739 40.0228 21.9739 40.0081 21.9739C40.0055 21.9739 40.0028 21.9753 40.0002 21.9753C39.9975 21.9753 39.9948 21.9739 39.9922 21.9739C39.9775 21.9739 39.9655 21.9739 39.9522 21.9753C39.8442 21.9779 39.7481 22.0179 39.6495 22.0447C39.5963 22.0606 39.5375 22.0606 39.4881 22.0833C38.9895 22.2873 38.6414 22.7765 38.6575 23.3459C38.6642 23.5553 38.6669 23.7632 38.6669 23.9739V24.6406C38.6669 25.3765 39.2628 25.9739 40.0002 25.9739C40.7375 25.9739 41.3334 25.3765 41.3334 24.6406V23.9739Z" fill="#D4C17F"/>
<path d="M32.0002 38.6404C32.0002 39.3763 32.5962 39.9737 33.3335 39.9737C34.0709 39.9737 34.6668 39.3763 34.6668 38.6404V37.9737C34.6668 37.2378 34.0709 36.6404 33.3335 36.6404C32.5962 36.6404 32.0002 37.2378 32.0002 37.9737V38.6404Z" fill="#D4C17F"/>
<path d="M33.3335 33.8671C34.0709 33.8671 34.6668 33.2698 34.6668 32.5338V31.1792C34.6668 30.4432 34.0709 29.8459 33.3335 29.8459C32.5962 29.8459 32.0002 30.4432 32.0002 31.1792V32.5338C32.0002 33.2698 32.5962 33.8671 33.3335 33.8671Z" fill="#D4C17F"/>
<path d="M28.0003 38.6404V37.9737C28.0003 37.2378 27.4044 36.6404 26.667 36.6404C25.9297 36.6404 25.3337 37.2378 25.3337 37.9737V38.6404C25.3337 39.3763 25.9297 39.9737 26.667 39.9737C27.4044 39.9737 28.0003 39.3765 28.0003 38.6404Z" fill="#D4C17F"/>
<path d="M9.31214 27.0218C9.56151 27.2285 9.86276 27.3298 10.1642 27.3298C10.5468 27.3298 10.9256 27.1671 11.1909 26.8498C11.4523 26.5351 11.7415 26.2377 12.0509 25.9657C12.6029 25.4777 12.6562 24.6363 12.1695 24.0831C11.6842 23.5298 10.8415 23.4763 10.2881 23.9643C9.87604 24.327 9.48932 24.7243 9.14011 25.1431C8.66948 25.7098 8.74683 26.5498 9.31214 27.0218Z" fill="#D4C17F"/>
<path d="M73.3334 63.9738H45.3334V57.3071C45.3334 56.5712 44.7375 55.9738 44.0001 55.9738C43.2628 55.9738 42.6669 56.5712 42.6669 57.3071V65.3071C42.6669 66.043 43.2628 66.6404 44.0001 66.6404H72.0001V73.3071C72.0001 75.5124 70.2054 77.3071 68.0001 77.3071H12.0002C9.79489 77.3071 8.00021 75.5124 8.00021 73.3071V66.6404H38.7775C39.5148 66.6404 40.1108 66.043 40.1108 65.3071C40.1108 64.5711 39.5148 63.9738 38.7775 63.9738H6.66677C5.92943 63.9738 5.3335 64.5711 5.3335 65.3071V73.3071C5.3335 76.983 8.32412 79.9738 12.0002 79.9738H68.0001C71.676 79.9738 74.6668 76.9832 74.6668 73.3071V65.3071C74.6666 64.5711 74.0707 63.9738 73.3334 63.9738Z" fill="#D4C17F"/>
<path d="M32.0002 70.6403V73.3071C32.0002 74.043 32.5962 74.6403 33.3335 74.6403C34.0709 74.6403 34.6668 74.043 34.6668 73.3071V70.6403C34.6668 69.9044 34.0709 69.3071 33.3335 69.3071C32.5962 69.3071 32.0002 69.9044 32.0002 70.6403Z" fill="#D4C17F"/>
<path d="M1.39352 25.9751C1.37759 25.9737 1.36149 25.9737 1.34555 25.9737C0.632274 25.9737 0.0388378 26.5404 0.0149316 27.2604C0.00555663 27.4978 0.000244141 27.7351 0.000244141 27.9737C0.000244141 28.7096 0.596181 29.307 1.33352 29.307C2.07087 29.307 2.6668 28.7096 2.6668 27.9737C2.6668 27.7657 2.67211 27.5604 2.67883 27.3537C2.70415 26.6178 2.12946 26.0004 1.39352 25.9751Z" fill="#D4C17F"/>
<path d="M7.15352 17.4139C7.45211 17.1259 7.76289 16.8512 8.08289 16.5898C8.65352 16.1231 8.73883 15.2831 8.27227 14.7139C7.80695 14.1445 6.96696 14.0565 6.39633 14.5245C6.01899 14.8339 5.65227 15.1578 5.30305 15.4965C4.77243 16.0072 4.75774 16.8512 5.26836 17.3819C5.52977 17.6525 5.87899 17.7886 6.22836 17.7886C6.56149 17.7884 6.89617 17.6645 7.15352 17.4139Z" fill="#D4C17F"/>
<path d="M3.62817 19.6031C2.97083 19.2751 2.16676 19.539 1.8388 20.1978C1.6202 20.6325 1.41739 21.0792 1.23614 21.5337C0.962861 22.219 1.29614 22.9937 1.9788 23.267C2.14145 23.3323 2.30817 23.3629 2.47348 23.3629C3.00286 23.3629 3.50411 23.0456 3.71207 22.5243C3.86535 22.139 4.03614 21.7617 4.22145 21.3923C4.55207 20.7339 4.28676 19.9339 3.62817 19.6031Z" fill="#D4C17F"/>
<path d="M6.02934 5.56311C6.25465 5.56311 6.48402 5.50577 6.6934 5.38577C7.05481 5.1778 7.42137 4.98171 7.79605 4.79905C8.45605 4.47374 8.72808 3.67374 8.40402 3.01374C8.07871 2.35234 7.2773 2.08172 6.61871 2.40578C6.19199 2.61515 5.7734 2.83781 5.36278 3.07374C4.72543 3.44171 4.50543 4.2564 4.8734 4.89515C5.12012 5.32312 5.56934 5.56311 6.02934 5.56311Z" fill="#D4C17F"/>
<path d="M18.6667 70.6403V73.3071C18.6667 74.043 19.2627 74.6403 20 74.6403C20.7374 74.6403 21.3333 74.043 21.3333 73.3071V70.6403C21.3333 69.9044 20.7374 69.3071 20 69.3071C19.2627 69.3071 18.6667 69.9044 18.6667 70.6403Z" fill="#D4C17F"/>
<path d="M78.0214 23.2671C78.7041 22.9939 79.0374 22.2192 78.7641 21.5339C78.5827 21.0792 78.38 20.6325 78.1614 20.1979C77.8321 19.5393 77.0308 19.2765 76.3721 19.6032C75.7135 19.9339 75.448 20.7339 75.7788 21.3926C75.9641 21.762 76.1347 22.1393 76.2881 22.5246C76.4961 23.046 76.9975 23.3632 77.5255 23.3632C77.6921 23.3631 77.8588 23.3324 78.0214 23.2671Z" fill="#D4C17F"/>
<path d="M79.9855 27.2604C79.9614 26.5231 79.3082 25.9324 78.6069 25.9751C77.871 26.0004 77.2963 26.6178 77.3216 27.3537C77.3283 27.5604 77.3336 27.7657 77.3336 27.9737C77.3336 28.7096 77.9296 29.307 78.6669 29.307C79.4043 29.307 80.0002 28.7096 80.0002 27.9737C80.0002 27.7351 79.9947 27.4978 79.9855 27.2604Z" fill="#D4C17F"/>
<path d="M74.6361 3.07392C74.2267 2.83798 73.8081 2.61533 73.3814 2.40595C72.7255 2.0833 71.9214 2.35392 71.5961 3.01392C71.2721 3.67392 71.5441 4.47392 72.2041 4.79923C72.5788 4.98189 72.9455 5.17798 73.3055 5.38595C73.5161 5.50595 73.7455 5.56329 73.9695 5.56329C74.431 5.56329 74.8802 5.32329 75.1269 4.89532C75.4947 4.25657 75.2747 3.44189 74.6361 3.07392Z" fill="#D4C17F"/>
<path d="M61.3333 73.3071V70.6403C61.3333 69.9044 60.7374 69.3071 60 69.3071C59.2627 69.3071 58.6667 69.9044 58.6667 70.6403V73.3071C58.6667 74.043 59.2627 74.6403 60 74.6403C60.7374 74.6403 61.3333 74.043 61.3333 73.3071Z" fill="#D4C17F"/>
<path d="M48 73.3071V70.6403C48 69.9044 47.4041 69.3071 46.6668 69.3071C45.9294 69.3071 45.3335 69.9044 45.3335 70.6403V73.3071C45.3335 74.043 45.9294 74.6403 46.6668 74.6403C47.404 74.6403 48 74.043 48 73.3071Z" fill="#D4C17F"/>
<path d="M73.604 14.5245C73.0319 14.0565 72.192 14.1445 71.728 14.7139C71.2613 15.2833 71.3466 16.1233 71.916 16.5898C72.2374 16.8512 72.548 17.1258 72.8466 17.4139C73.104 17.6645 73.4387 17.7886 73.7719 17.7886C74.1213 17.7886 74.4693 17.6526 74.7319 17.3819C75.2426 16.8512 75.2279 16.0072 74.6973 15.4965C74.348 15.1578 73.9813 14.8339 73.604 14.5245Z" fill="#D4C17F"/>
<path d="M8.11878 29.9765C7.35737 29.9259 6.74675 30.4792 6.69347 31.2124C6.67612 31.4645 6.66675 31.7178 6.66675 31.9738C6.66675 32.7098 7.26268 33.3071 8.00003 33.3071C8.73737 33.3071 9.33331 32.7098 9.33331 31.9738C9.33331 31.7818 9.34002 31.5898 9.35331 31.4018C9.40549 30.6671 8.85346 30.0298 8.11878 29.9765Z" fill="#D4C17F"/>
<path d="M26.4134 29.4445C25.6854 29.5404 25.1707 30.2098 25.2666 30.9404C25.3107 31.279 25.3334 31.6231 25.3334 31.9737V32.2043C25.3334 32.9417 25.9293 33.5376 26.6666 33.5376C27.404 33.5376 27.9999 32.9417 27.9999 32.2043V31.9737C27.9999 31.5084 27.9705 31.0431 27.9105 30.5923C27.8134 29.8631 27.1573 29.3471 26.4134 29.4445Z" fill="#D4C17F"/>
<path d="M24.9067 4.02453C25.2987 4.17249 25.6853 4.3339 26.0667 4.50452C26.244 4.58452 26.4281 4.62187 26.6107 4.62187C27.1201 4.62187 27.6067 4.32859 27.8281 3.8339C28.1307 3.16187 27.8295 2.3725 27.1574 2.07125C26.7295 1.87922 26.2934 1.69797 25.8521 1.52984C25.1681 1.27391 24.3948 1.61516 24.1335 2.30453C23.8707 2.9925 24.2173 3.76187 24.9067 4.02453Z" fill="#D4C17F"/>
<path d="M24.3908 15.1125C24.7522 15.3125 25.1068 15.5272 25.4494 15.7551C25.6774 15.9084 25.9335 15.9804 26.1894 15.9804C26.6188 15.9804 27.0414 15.7737 27.2988 15.3898C27.7082 14.7778 27.5428 13.9486 26.9308 13.5392C26.5255 13.2686 26.1068 13.0139 25.6775 12.7778C25.0308 12.4245 24.2216 12.6565 23.8655 13.3019C23.5108 13.9458 23.7468 14.7578 24.3908 15.1125Z" fill="#D4C17F"/>
<path d="M1.33352 9.30718C1.69493 9.30718 2.05618 9.16047 2.31883 8.8725C2.45617 8.72187 2.59758 8.5725 2.74149 8.42719C3.25477 7.90047 3.2468 7.05656 2.72008 6.54188C2.19602 6.02719 1.35336 6.03657 0.834772 6.56063C0.67071 6.7286 0.508054 6.90063 0.348055 7.07531C-0.147882 7.61938 -0.109288 8.46328 0.434773 8.95937C0.690866 9.1925 1.01212 9.30718 1.33352 9.30718Z" fill="#D4C17F"/>
<path d="M22.2921 25.6951C22.6174 25.9537 22.9227 26.2365 23.2001 26.5351C23.4641 26.8192 23.8201 26.9618 24.1787 26.9618C24.5027 26.9618 24.828 26.8445 25.0866 26.6059C25.6254 26.1059 25.656 25.2618 25.156 24.7218C24.7866 24.3245 24.3813 23.9485 23.9507 23.6071C23.3707 23.1485 22.5334 23.2457 22.0774 23.8218C21.6188 24.3978 21.7148 25.2365 22.2921 25.6951Z" fill="#D4C17F"/>
<path d="M29.7534 20.1684C30.0067 20.5711 30.4401 20.7911 30.8828 20.7911C31.1268 20.7911 31.3708 20.7243 31.5922 20.587C32.2148 20.1937 32.4028 19.3696 32.0095 18.747C31.7481 18.3337 31.4708 17.9311 31.1789 17.5417C30.7348 16.9564 29.9003 16.835 29.3109 17.279C28.7229 17.7231 28.6056 18.559 29.0483 19.147C29.2973 19.4765 29.532 19.8178 29.7534 20.1684Z" fill="#D4C17F"/>
<path d="M30.3693 7.08576C30.6999 7.34045 31.024 7.60717 31.34 7.8817C31.592 8.1017 31.904 8.20842 32.2146 8.20842C32.5867 8.20842 32.9573 8.05373 33.2199 7.75107C33.704 7.19514 33.6453 6.35248 33.0893 5.86967C32.7346 5.55905 32.3693 5.2603 31.9946 4.97233C31.412 4.5217 30.576 4.63233 30.1253 5.21639C29.6773 5.80045 29.7854 6.63654 30.3693 7.08576Z" fill="#D4C17F"/>
<path d="M12.2415 3.18579C12.3362 3.18579 12.4309 3.17642 12.5269 3.15517C12.9362 3.06579 13.3495 2.9872 13.7642 2.92048C14.4922 2.80579 14.9868 2.12189 14.8709 1.39517C14.7562 0.668452 14.075 0.167203 13.3456 0.288453C12.8776 0.36314 12.415 0.449859 11.9576 0.551109C11.2376 0.708452 10.783 1.41908 10.9403 2.13907C11.0775 2.76189 11.6283 3.18579 12.2415 3.18579Z" fill="#D4C17F"/>
<path d="M18.7935 2.68984C19.2149 2.71922 19.6321 2.75922 20.0442 2.81125C20.1001 2.81797 20.1574 2.82187 20.2121 2.82187C20.8748 2.82187 21.4495 2.32859 21.5334 1.65515C21.6267 0.924531 21.1081 0.257814 20.3774 0.165782C19.9134 0.107189 19.4442 0.0604702 18.9707 0.0298452C18.2521 -0.0234359 17.5987 0.536563 17.5507 1.27125C17.5029 2.00578 18.0574 2.64047 18.7935 2.68984Z" fill="#D4C17F"/>
<path d="M32.6454 23.1392C31.9268 23.3018 31.476 24.0151 31.6387 24.7339C31.7307 25.1339 31.8027 25.5392 31.8587 25.9498C31.9507 26.6192 32.5227 27.1045 33.1801 27.1045C33.2401 27.1045 33.3001 27.1004 33.3601 27.0912C34.0894 26.9926 34.6015 26.3206 34.5027 25.5912C34.436 25.1032 34.348 24.6206 34.2413 24.1445C34.0787 23.4271 33.3601 22.9778 32.6454 23.1392Z" fill="#D4C17F"/>
<path d="M11.9336 14.2419C12.0829 14.2419 12.235 14.2165 12.3842 14.1633C12.7709 14.0233 13.1656 13.9006 13.5668 13.7953C14.2789 13.6059 14.7028 12.8767 14.5148 12.1647C14.3254 11.4526 13.5948 11.0326 12.8842 11.2167C12.4109 11.342 11.9428 11.4887 11.4828 11.6526C10.7908 11.9006 10.4295 12.6647 10.6787 13.3579C10.8736 13.9019 11.3868 14.2419 11.9336 14.2419Z" fill="#D4C17F"/>
<path d="M18.492 13.3525C18.9067 13.3845 19.3161 13.4339 19.7227 13.5005C19.7959 13.5125 19.868 13.5178 19.94 13.5178C20.5814 13.5178 21.1467 13.0552 21.2533 12.4019C21.3733 11.6752 20.8812 10.9886 20.1547 10.8686C19.6761 10.79 19.1906 10.7313 18.6973 10.6939C17.972 10.6298 17.3227 11.1845 17.2653 11.9192C17.2081 12.6539 17.7574 13.2952 18.492 13.3525Z" fill="#D4C17F"/>
<path d="M16.3682 24.0231C16.4135 24.0231 16.4602 24.0217 16.5068 24.0164C16.9121 23.975 17.3347 23.9631 17.7441 23.9831C18.5108 24.0178 19.1055 23.4537 19.1415 22.7178C19.1788 21.9831 18.6121 21.3578 17.8761 21.3204C17.3308 21.2911 16.7721 21.3084 16.2335 21.3631C15.5015 21.439 14.9682 22.0937 15.0429 22.8272C15.1147 23.5125 15.6921 24.0231 16.3682 24.0231Z" fill="#D4C17F"/>
</g>
<defs>
<clipPath id="clip0_43_317">
<rect width="80" height="80" fill="white"/>
</clipPath>
</defs>
</svg>
