<svg width="21" height="21" viewBox="0 0 21 21" fill="none" xmlns="http://www.w3.org/2000/svg">
<g clip-path="url(#clip0_43_253)">
<path d="M20.9863 17.2838C20.9196 16.7792 20.6282 16.3441 20.1872 16.0902L15.0064 13.1073C14.3719 12.7419 13.5669 12.8483 13.049 13.3662L12.0285 14.3866C11.757 14.6582 11.3274 14.6822 11.0294 14.4424C10.225 13.7951 9.43287 13.0827 8.67521 12.325C7.91755 11.5674 7.20515 10.7753 6.55779 9.9708C6.31799 9.67282 6.34199 9.24325 6.61362 8.97166L7.63403 7.95121C8.1519 7.43339 8.25839 6.62851 7.89296 5.99385L4.91007 0.813074C4.65608 0.371947 4.22103 0.0806735 3.7164 0.0139102C3.21173 -0.0529891 2.71586 0.115325 2.35592 0.475266L0.818321 2.01291C-0.254836 3.08611 -0.272071 5.04919 0.769791 7.54061C1.7716 9.9362 3.64116 12.5733 6.03398 14.9663C8.42689 17.3591 11.064 19.2287 13.4597 20.2305C14.686 20.7433 15.7843 20.9996 16.7115 20.9995C17.668 20.9995 18.4424 20.7268 18.9874 20.1819L20.525 18.6443C20.8849 18.2843 21.053 17.7885 20.9863 17.2838ZM14.6669 13.6968L19.8477 16.6797C20.1039 16.8272 20.2731 17.08 20.3118 17.373C20.3444 17.619 20.2805 17.8612 20.1356 18.0564L13.2505 14.1269L13.5301 13.8472C13.8308 13.5465 14.2984 13.4847 14.6669 13.6968ZM3.62714 0.688392C3.92028 0.727171 4.17295 0.896347 4.32045 1.15256L7.30334 6.33334C7.51561 6.70194 7.45374 7.16946 7.15299 7.47017L6.89614 7.72702L2.94504 0.864598C3.10655 0.744995 3.29972 0.680046 3.5011 0.680046C3.54287 0.680046 3.58501 0.682813 3.62714 0.688392ZM18.5062 19.7008C17.6537 20.5534 15.9099 20.5177 13.7221 19.6028C11.4063 18.6343 8.84684 16.8169 6.51511 14.4852C4.18338 12.1534 2.3659 9.59394 1.39747 7.27814C0.482509 5.09032 0.446814 3.34659 1.29941 2.49395L2.44087 1.35244L6.39791 8.22525L6.13254 8.49063C5.6148 9.0084 5.56972 9.82807 6.02772 10.3974C6.69032 11.2208 7.41923 12.0313 8.19408 12.8061C8.96902 13.581 9.77944 14.3099 10.6029 14.9725C11.1721 15.4305 11.9917 15.3855 12.5096 14.8677L12.7517 14.6255L19.6465 18.5605L18.5062 19.7008Z" fill="white"/>
</g>
<defs>
<clipPath id="clip0_43_253">
<rect width="21" height="21" fill="white"/>
</clipPath>
</defs>
</svg>
